<svg width="399" height="144" viewBox="0 0 399 144" fill="none" xmlns="http://www.w3.org/2000/svg">
<path d="M9.2 144C4 144 1.19209e-07 139.8 1.19209e-07 134.8C1.19209e-07 129.6 4 125.6 9.2 125.6C14.2 125.6 18.4 129.6 18.4 134.8C18.4 139.8 14.2 144 9.2 144ZM72.6141 3.59999C73.0141 2.4 73.8141 1.99999 74.8141 1.99999H82.8141C84.2141 1.99999 84.8141 2.99999 84.4141 4.4L34.0141 140.4C33.6141 141.6 32.8141 142 31.8141 142H23.8141C22.4141 142 21.8141 141 22.2141 139.6L72.6141 3.59999ZM126.081 144C106.481 144 93.0813 128.8 92.4813 106C92.4813 104.8 93.2813 104 94.4813 104H102.481C103.681 104 104.481 104.8 104.481 106C105.081 123.6 112.481 132.8 126.081 132.8C140.081 132.8 147.281 125.6 147.281 111.8C147.281 77.6 93.4813 70 93.4813 31C93.4813 12.4 106.281 -7.62939e-06 125.681 -7.62939e-06C143.881 -7.62939e-06 156.481 14.8 157.481 37C157.481 38.2 156.681 39 155.481 39H147.481C146.281 39 145.481 38.2 145.481 37C144.681 19.4 137.681 11.2 125.681 11.2C112.481 11.2 105.481 18 105.481 31C105.481 63.2 159.281 70.6 159.281 111.8C159.281 131.2 146.081 144 126.081 144ZM210.931 131.2H228.931C230.131 131.2 230.931 132 230.931 133.2V140.4C230.931 141.6 230.131 142.4 228.931 142.4H210.931C191.731 142.4 178.931 127.4 178.931 108.2V3.99999C178.931 2.79999 179.731 1.99999 180.931 1.99999H188.931C190.131 1.99999 190.931 2.79999 190.931 3.99999V108.2C190.931 121.2 198.931 131.2 210.931 131.2ZM245.97 142C244.77 142 243.97 141.2 243.97 140V36C243.97 15 256.97 -7.62939e-06 276.97 -7.62939e-06C296.97 -7.62939e-06 309.97 15 309.97 36V140C309.97 141.2 309.17 142 307.97 142H299.97C298.77 142 297.97 141.2 297.97 140V36C297.97 21.2 289.77 11.2 276.97 11.2C264.17 11.2 255.97 21.2 255.97 36V140C255.97 141.2 255.17 142 253.97 142H245.97ZM364.791 144C345.191 144 332.191 130.2 332.191 109.6V34.4C332.191 13.8 345.191 -7.62939e-06 364.791 -7.62939e-06C383.591 -7.62939e-06 396.791 14.8 397.391 37C397.391 38.2 396.591 39 395.391 39H387.391C386.191 39 385.391 38.4 385.391 37C384.791 20.4 376.791 11.2 364.791 11.2C351.791 11.2 344.191 19.8 344.191 34.4V109.6C344.191 124.2 351.791 132.8 364.791 132.8C377.991 132.8 385.991 122.8 386.391 106C386.391 104.6 387.191 104 388.391 104H396.391C397.591 104 398.391 104.6 398.391 105.8C397.791 128.8 384.391 144 364.791 144Z" fill="white"/>
</svg>
